# xmcd
#
# Track frame offsets: 
#        150
#        52810
#        78202
#        95247
#        126682
#        148145
#        169965
#        186822
#        203550
#        240710
#
# Disc length: 3401 seconds
#
# Revision: 3
# Processed by: cddbd v1.4PL0 Copyright (c) Steve Scherf et al.
# Submitted via: ExactAudioCopy v0.95a3
#
DISCID=8f0d470a
DTITLE=MC 900 Ft Jesus - One Step Ahead Of The Spider
DYEAR=1994
DGENRE=
TTITLE0=New Moon
TTITLE1=But If You Go
TTITLE2=If I Only Had A Brain
TTITLE3=Stare and Stare
TTITLE4=Buried At Sea
TTITLE5=Tiptoe Through The Inferno
TTITLE6=Gracías Pepé
TTITLE7=New Year's Eve
TTITLE8=Bill's Dream
TTITLE9=Rhubarb
EXTD=
EXTT0=
EXTT1=
EXTT2=
EXTT3=
EXTT4=
EXTT5=
EXTT6=
EXTT7=
EXTT8=
EXTT9=
PLAYORDER=
